<?xml version="1.0" encoding="UTF-8"?>
<!DOCTYPE svg PUBLIC "-//W3C//DTD SVG 1.1//EN" "http://www.w3.org/Graphics/SVG/1.1/DTD/svg11.dtd">
<svg xmlns="http://www.w3.org/2000/svg" version="1.1" width="500px" height="500px" style="shape-rendering:geometricPrecision; text-rendering:geometricPrecision; image-rendering:optimizeQuality; fill-rule:evenodd; clip-rule:evenodd" xmlns:xlink="http://www.w3.org/1999/xlink">
<g transform="translate(0, 18.75)">
<g><path style="opacity:1" fill="#d6d7dd" d="M 197.5,102.5 C 194.615,102.194 191.948,102.527 189.5,103.5C 182.167,103.5 174.833,103.5 167.5,103.5C 159.5,102.167 151.5,102.167 143.5,103.5C 141.914,102.852 140.247,102.352 138.5,102C 158.338,101.171 178.004,101.338 197.5,102.5 Z"/></g>
<g><path style="opacity:1" fill="#75808d" d="M 378.5,176.5 C 378.83,158.659 378.497,140.992 377.5,123.5C 377.987,122.527 378.487,121.527 379,120.5C 379.829,139.338 379.662,158.005 378.5,176.5 Z"/></g>
<g><path style="opacity:1" fill="#8b939f" d="M 82.5,214.5 C 84.5,215.167 86.5,215.833 88.5,216.5C 85.4135,216.543 82.4135,216.71 79.5,217C 80.3734,215.955 81.3734,215.122 82.5,214.5 Z"/></g>
<g><path style="opacity:1" fill="#f3f4f4" d="M 313.5,123.5 C 313.5,125.833 313.5,128.167 313.5,130.5C 332.341,130.83 351.007,130.497 369.5,129.5C 373.329,128.931 375.996,126.931 377.5,123.5C 378.497,140.992 378.83,158.659 378.5,176.5C 378.486,187.717 374.486,197.217 366.5,205C 379.833,218.333 393.167,231.667 406.5,245C 410.108,246.661 413.775,246.995 417.5,246C 403.111,260.723 388.445,275.057 373.5,289C 366.605,293.808 358.938,295.975 350.5,295.5C 350.333,314.503 350.5,333.503 351,352.5C 351.985,355.983 354.151,358.316 357.5,359.5C 339.007,360.497 320.341,360.83 301.5,360.5C 291.619,359.891 283.286,356.058 276.5,349C 275.833,348.333 275.167,348.333 274.5,349C 261.667,361.833 248.833,374.667 236,387.5C 234.337,391.784 234.004,396.117 235,400.5C 222,387.5 209,374.5 196,361.5C 190.614,355.061 187.114,347.727 185.5,339.5C 185.5,336.833 185.5,334.167 185.5,331.5C 166.326,331.17 147.326,331.503 128.5,332.5C 123.818,333.683 120.985,336.683 120,341.5C 119.333,321.5 119.333,301.5 120,281.5C 120.726,272.382 124.393,264.716 131,258.5C 131.667,257.5 131.667,256.5 131,255.5C 119.167,243.667 107.333,231.833 95.5,220C 93.4732,218.121 91.1398,216.954 88.5,216.5C 86.5,215.833 84.5,215.167 82.5,214.5C 95.606,201.228 108.939,188.061 122.5,175C 130.12,169.026 138.787,166.193 148.5,166.5C 148.667,147.497 148.5,128.497 148,109.5C 146.668,107.34 145.168,105.34 143.5,103.5C 151.5,102.167 159.5,102.167 167.5,103.5C 164.888,104.277 163.055,105.944 162,108.5C 161.333,126.5 161.333,144.5 162,162.5C 162.833,164.667 164.333,166.167 166.5,167C 175.886,167.853 185.219,167.519 194.5,166C 188.129,159.973 182.296,153.807 177,147.5C 180.256,149.429 183.756,149.929 187.5,149C 196.804,140.697 205.804,132.031 214.5,123C 210.158,111.502 201.825,105.002 189.5,103.5C 191.948,102.527 194.615,102.194 197.5,102.5C 202.034,102.267 206.368,103.1 210.5,105C 215.281,107.851 219.947,110.518 224.5,113C 237,100.5 249.5,88 262,75.5C 265.021,71.0529 265.188,66.5529 262.5,62C 276.14,74.6351 289.64,87.8017 303,101.5C 308.893,107.675 312.393,115.008 313.5,123.5 Z"/></g>
<g><path style="opacity:1" fill="#14253d" d="M 161.5,191.5 C 168.956,200.263 170.29,209.929 165.5,220.5C 163.803,219.636 162.637,218.303 162,216.5C 161.5,208.173 161.334,199.84 161.5,191.5 Z"/></g>
<g><path style="opacity:1" fill="#192840" d="M 315.5,178.5 C 318.425,178.46 321.091,179.293 323.5,181C 328.833,186.333 334.167,191.667 339.5,197C 327.608,195.887 319.608,189.72 315.5,178.5 Z"/></g>
<g><path style="opacity:1" fill="#0f213a" d="M 141.5,222.5 C 140.325,222.281 139.325,222.614 138.5,223.5C 146.99,224.167 155.324,224.833 163.5,225.5C 158.408,232.097 152.741,238.263 146.5,244C 143.833,244.667 141.167,244.667 138.5,244C 125.333,232.167 112.833,219.667 101,206.5C 100.21,203.366 100.543,200.366 102,197.5C 109.078,188.741 117.578,181.907 127.5,177C 134.659,175.762 141.492,176.596 148,179.5C 148.667,191.167 148.667,202.833 148,214.5C 147.449,218.545 145.282,221.212 141.5,222.5 Z"/></g>
<g><path style="opacity:1" fill="#0e2039" d="M 317.5,143.5 C 335.503,143.333 353.503,143.5 371.5,144C 373.939,144.774 375.773,146.274 377,148.5C 378.055,158.96 377.388,169.293 375,179.5C 372.058,188.795 365.891,193.961 356.5,195C 348.667,187.167 340.833,179.333 333,171.5C 331.596,169.361 330.763,167.028 330.5,164.5C 330.921,162.342 331.421,160.342 332,158.5C 326.319,164.348 320.485,170.015 314.5,175.5C 312.584,166.93 312.084,158.263 313,149.5C 313.804,146.854 315.304,144.854 317.5,143.5 Z"/></g>
<g><path style="opacity:1" fill="#afb0bb" d="M 266.5,143.5 C 274.01,142.18 281.677,142.18 289.5,143.5C 289.376,144.107 289.043,144.44 288.5,144.5C 281.352,143.508 274.019,143.175 266.5,143.5 Z"/></g>
<g><path style="opacity:1" fill="#12233c" d="M 214.5,141.5 C 213.967,152.158 208.633,159.825 198.5,164.5C 197.359,162.579 197.192,160.579 198,158.5C 203.703,152.965 209.203,147.298 214.5,141.5 Z"/></g>
<g><path style="opacity:1" fill="#60677a" d="M 313.5,123.5 C 314.461,125.265 314.795,127.265 314.5,129.5C 332.833,129.5 351.167,129.5 369.5,129.5C 351.007,130.497 332.341,130.83 313.5,130.5C 313.5,128.167 313.5,125.833 313.5,123.5 Z"/></g>
<g><path style="opacity:1" fill="#0f213a" d="M 190.5,318.5 C 188.533,310.903 187.866,302.903 188.5,294.5C 190.093,289.394 193.093,285.227 197.5,282C 207.947,277.444 218.614,273.444 229.5,270C 243.002,262.897 246.335,252.397 239.5,238.5C 239.506,243.655 237.506,247.821 233.5,251C 221.049,257.227 208.383,262.893 195.5,268C 191.279,271.605 188.446,276.105 187,281.5C 182.272,258.098 168.106,247.931 144.5,251C 144.167,250.667 143.833,250.333 143.5,250C 148.833,244.667 154.167,239.333 159.5,234C 166.457,230.142 173.791,229.475 181.5,232C 189.078,235.262 196.412,238.929 203.5,243C 219.358,250.272 230.691,245.939 237.5,230C 237.333,229.5 237.167,229 237,228.5C 234.183,232.075 230.516,234.075 226,234.5C 220.625,233.73 215.459,232.23 210.5,230C 203.405,226.119 196.071,222.785 188.5,220C 184.167,219.333 179.833,219.333 175.5,220C 168.917,223.807 168.084,222.974 173,217.5C 181.951,199.465 178.451,184.465 162.5,172.5C 161.614,171.675 161.281,170.675 161.5,169.5C 169.174,169.334 176.841,169.5 184.5,170C 192.079,171.908 197.579,176.408 201,183.5C 204.399,192.363 207.399,201.363 210,210.5C 217.116,225.117 227.95,228.617 242.5,221C 236.237,221.285 231.404,218.785 228,213.5C 223.544,205.257 220.211,196.59 218,187.5C 215.041,177.539 208.541,171.373 198.5,169C 222.064,163.941 232.731,149.441 230.5,125.5C 238.716,131.869 245.216,139.536 250,148.5C 250.726,153.239 250.393,157.905 249,162.5C 244.093,171.983 239.426,181.649 235,191.5C 232.064,205.293 237.231,214.626 250.5,219.5C 250.833,219.167 251.167,218.833 251.5,218.5C 248.103,215.651 246.436,211.984 246.5,207.5C 248.696,196.101 252.863,185.435 259,175.5C 262.776,167.305 262.276,159.471 257.5,152C 262.436,154.791 267.77,157.125 273.5,159C 288.733,161.214 300.733,156.047 309.5,143.5C 310.665,151.813 310.832,160.147 310,168.5C 306.77,176.063 301.27,181.229 293.5,184C 282.607,186.636 272.274,190.636 262.5,196C 254.566,204.264 253.399,213.43 259,223.5C 259.316,216.842 262.483,212.008 268.5,209C 276.743,204.544 285.41,201.211 294.5,199C 303.463,195.706 309.296,189.539 312,180.5C 316.193,204.173 330.36,214.84 354.5,212.5C 348.564,219.94 341.564,226.107 333.5,231C 328.5,231.667 323.5,231.667 318.5,231C 310.045,227.273 301.712,223.273 293.5,219C 282.435,212.931 272.935,214.764 265,224.5C 259.467,233.091 260.3,234.591 267.5,229C 270.833,228.333 274.167,228.333 277.5,229C 289.132,233.156 300.465,237.823 311.5,243C 317.357,243.367 323.023,242.7 328.5,241C 315.487,260.662 318.487,277.496 337.5,291.5C 329.187,292.665 320.853,292.832 312.5,292C 307.455,289.95 303.288,286.784 300,282.5C 295.388,269.995 290.388,257.662 285,245.5C 276.714,236.653 267.214,235.153 256.5,241C 261.465,241.067 265.632,242.9 269,246.5C 271.588,250.674 273.921,255.007 276,259.5C 278.407,267.721 281.407,275.721 285,283.5C 288.315,287.818 292.481,290.985 297.5,293C 275.675,299.474 265.842,313.974 268,336.5C 262.333,330.833 256.667,325.167 251,319.5C 248.682,313.693 248.016,307.693 249,301.5C 253.061,292.378 257.394,283.378 262,274.5C 267.821,259.818 263.488,249.484 249,243.5C 248.5,243.667 248,243.833 247.5,244C 252.009,247.883 253.509,252.716 252,258.5C 247.904,269.802 243.237,280.802 238,291.5C 237.333,295.167 237.333,298.833 238,302.5C 238.743,305.265 239.41,307.931 240,310.5C 220.767,297.522 204.267,300.189 190.5,318.5 Z"/></g>
<g><path style="opacity:1" fill="#15263e" d="M 266.5,143.5 C 274.019,143.175 281.352,143.508 288.5,144.5C 282.796,147.76 276.629,149.76 270,150.5C 266.282,150.196 262.782,149.196 259.5,147.5C 261.081,144.875 263.415,143.542 266.5,143.5 Z"/></g>
<g><path style="opacity:1" fill="#0d2039" d="M 167.5,103.5 C 174.833,103.5 182.167,103.5 189.5,103.5C 201.825,105.002 210.158,111.502 214.5,123C 205.804,132.031 196.804,140.697 187.5,149C 183.756,149.929 180.256,149.429 177,147.5C 182.296,153.807 188.129,159.973 194.5,166C 185.219,167.519 175.886,167.853 166.5,167C 164.333,166.167 162.833,164.667 162,162.5C 161.333,144.5 161.333,126.5 162,108.5C 163.055,105.944 164.888,104.277 167.5,103.5 Z"/></g>
<g><path style="opacity:1" fill="#0f213a" d="M 273.5,82.5 C 276.187,82.3359 278.854,82.5026 281.5,83C 290.832,89.6665 297.999,98.1665 303,108.5C 304.979,115.999 304.479,123.333 301.5,130.5C 289.495,130.667 277.495,130.5 265.5,130C 260.929,128.427 258.096,125.26 257,120.5C 256.667,129.167 256.333,137.833 256,146.5C 248.373,141.207 241.706,134.874 236,127.5C 235.245,124.697 235.578,122.03 237,119.5C 249.369,107.298 261.535,94.9651 273.5,82.5 Z"/></g>
<g><path style="opacity:1" fill="#0e2039" d="M 352.5,217.5 C 355.649,217.211 358.649,217.711 361.5,219C 374.03,231.196 386.196,243.696 398,256.5C 398.743,259.783 398.076,262.783 396,265.5C 390.429,271.742 384.262,277.242 377.5,282C 369.032,287.111 360.365,287.611 351.5,283.5C 350.334,270.846 350.167,258.18 351,245.5C 352.668,241.835 355.501,239.668 359.5,239C 351.147,238.832 342.813,238.332 334.5,237.5C 340.152,230.515 346.152,223.848 352.5,217.5 Z"/></g>
<g><path style="opacity:1" fill="#717d8a" d="M 141.5,222.5 C 149.01,223.167 156.677,223.833 164.5,224.5C 164.376,225.107 164.043,225.44 163.5,225.5C 155.324,224.833 146.99,224.167 138.5,223.5C 139.325,222.614 140.325,222.614 141.5,222.5 Z"/></g>
<g><path style="opacity:1" fill="#1a2941" d="M 332.5,241.5 C 334.453,242.626 335.953,244.292 337,246.5C 337.667,254.5 337.667,262.5 337,270.5C 330.319,261.619 328.819,251.953 332.5,241.5 Z"/></g>
<g><path style="opacity:1" fill="#10223a" d="M 138.5,266.5 C 139.873,266.343 141.207,266.51 142.5,267C 151.031,275.197 159.198,283.697 167,292.5C 167.502,296.241 167.502,299.908 167,303.5C 172.667,297.833 178.333,292.167 184,286.5C 185.114,291.391 185.614,296.391 185.5,301.5C 185.333,305.833 185.167,310.167 185,314.5C 183.661,317.094 181.494,318.594 178.5,319C 161.5,319.667 144.5,319.667 127.5,319C 125.714,318.215 124.214,317.049 123,315.5C 121.079,305.214 121.079,294.88 123,284.5C 125.535,276.138 130.702,270.138 138.5,266.5 Z"/></g>
<g><path style="opacity:1" fill="#1a2a42" d="M 160.5,265.5 C 171.491,266.994 179.157,272.827 183.5,283C 180.217,283.743 177.217,283.076 174.5,281C 169.234,276.241 164.567,271.075 160.5,265.5 Z"/></g>
<g><path style="opacity:1" fill="#10213a" d="M 307.5,294.5 C 315.507,294.334 323.507,294.5 331.5,295C 334,296.167 335.833,298 337,300.5C 337.667,317.5 337.667,334.5 337,351.5C 336.573,355.527 334.406,358.027 330.5,359C 319.593,360.307 308.926,359.307 298.5,356C 290.869,352.393 286.369,346.56 285,338.5C 292.833,330.667 300.667,322.833 308.5,315C 310.639,313.596 312.972,312.763 315.5,312.5C 317.921,313.072 320.254,313.572 322.5,314C 316.017,308.684 310.017,302.851 304.5,296.5C 305.602,295.824 306.602,295.158 307.5,294.5 Z"/></g>
<g><path style="opacity:1" fill="#13243c" d="M 299.5,297.5 C 300.586,297.62 301.253,298.287 301.5,299.5C 301.101,301.197 300.601,302.863 300,304.5C 294.667,309.833 289.333,315.167 284,320.5C 285.009,309.998 290.175,302.331 299.5,297.5 Z"/></g>
<g><path style="opacity:1" fill="#14243d" d="M 232.5,318.5 C 225.313,318.825 218.313,318.491 211.5,317.5C 220.318,311.859 229.652,311.026 239.5,315C 237.691,317.238 235.358,318.405 232.5,318.5 Z"/></g>
<g><path style="opacity:1" fill="#485467" d="M 188.5,294.5 C 187.866,302.903 187.866,302.903 190.5,318.5C 189.791,319.404 188.791,319.737 187.5,319.5C 187.174,310.983 187.507,302.65 188.5,294.5 Z"/></g>
<g><path style="opacity:1" fill="#9ba2ae" d="M 242.5,316.5 C 242.666,324.84 242.5,333.173 242,341.5C 241.487,340.473 240.987,339.473 240.5,338.5C 241.167,331.167 241.833,323.833 242.5,316.5 Z"/></g>
<g><path style="opacity:1" fill="#0d1f38" d="M 242.5,316.5 C 249.385,320.876 255.551,326.21 261,332.5C 262.483,335.702 262.817,339.036 262,342.5C 249.471,355.363 236.638,367.863 223.5,380C 221.029,380.706 218.695,380.373 216.5,379C 211.667,374.167 206.833,369.333 202,364.5C 194.047,354.863 192.547,344.363 197.5,333C 209.833,332.333 222.167,332.333 234.5,333C 236.996,334.331 238.996,336.164 240.5,338.5C 240.987,339.473 241.487,340.473 242,341.5C 242.5,333.173 242.666,324.84 242.5,316.5 Z"/></g>
<g><path style="opacity:1" fill="#707789" d="M 211.5,317.5 C 218.313,318.491 225.313,318.825 232.5,318.5C 225.011,319.656 217.345,319.822 209.5,319C 210.044,318.283 210.711,317.783 211.5,317.5 Z"/></g>
<g><path style="opacity:1" fill="#b4bac2" d="M 128.5,332.5 C 147.326,331.503 166.326,331.17 185.5,331.5C 185.5,334.167 185.5,336.833 185.5,339.5C 184.532,337.393 184.198,335.059 184.5,332.5C 165.833,332.5 147.167,332.5 128.5,332.5 Z"/></g>
<g><path style="opacity:1" fill="#687381" d="M 357.5,359.5 C 358.376,359.369 359.043,359.702 359.5,360.5C 340.004,361.828 320.671,361.828 301.5,360.5C 320.341,360.83 339.007,360.497 357.5,359.5 Z"/></g>
</g>
</svg>
